# xmcd CD database file
#
# Track frame offsets:
#	150
#	3475
#	21015
#	45672
#	73610
#	95632
#	101379
#	126332
#
# Disc length: 2034 seconds
#
# Revision: 0
# Processed by: cddbd v1.5.1PL0 Copyright (c) Steve Scherf et al.
# Submitted via: CDex 1.51
#
DISCID=6207f008
DTITLE=BRAIN DRIVE - LEFT
DYEAR=2003
DGENRE=Techno
TTITLE0=LEFT interrude ?
TTITLE1=THE REBORN MAN
TTITLE2=BLACK HOLE
TTITLE3=Spiritual wars
TTITLE4=COLD BLADE
TTITLE5=LEFT interrude ?
TTITLE6=ONLY HEAVEN
TTITLE7=青春の代償
EXTD=YEAR: 2003
EXTT0=
EXTT1=
EXTT2=
EXTT3=
EXTT4=
EXTT5=
EXTT6=
EXTT7=
PLAYORDER=
